<svg width="512" height="512" viewBox="0 0 512 512" fill="none" xmlns="http://www.w3.org/2000/svg">
  <circle cx="256" cy="256" r="256" fill="#fdf2f8"/>
  
  <circle cx="256" cy="256" r="180" fill="#f59e0b"/>
  
  <path d="M436 256c0 99.4-80.6 180-180 180S76 355.4 76 256 156.6 76 256 76c20 0 45 5 60 15 15 10 20 30 30 40 10 10 30 10 40 0s10-30 20-30c15 0 30 20 30 40s-10 30 0 40 30 10 30 30 30 40z" fill="#ec4899"/>
  
  <circle cx="256" cy="256" r="60" fill="#fdf2f8"/>
  
  <rect x="180" y="150" width="30" height="10" rx="5" fill="#fef08a" transform="rotate(45 180 150)"/>
  <rect x="300" y="180" width="30" height="10" rx="5" fill="#bae6fd" transform="rotate(-30 300 180)"/>
  <rect x="250" y="350" width="30" height="10" rx="5" fill="#a7f3d0" transform="rotate(10 250 350)"/>
  <rect x="150" y="280" width="30" height="10" rx="5" fill="#fff" transform="rotate(90 150 280)"/>
  <rect x="350" y="300" width="30" height="10" rx="5" fill="#fef08a"/>
</svg>